<?xml version="1.0" encoding="utf-8" standalone="no"?>
<!DOCTYPE svg PUBLIC "-//W3C//DTD SVG 1.1//EN"
  "http://www.w3.org/Graphics/SVG/1.1/DTD/svg11.dtd">
<svg height="470.565312pt" version="1.1" viewBox="0 0 475.701562 470.565312" width="475.701562pt" xmlns="http://www.w3.org/2000/svg" xmlns:xlink="http://www.w3.org/1999/xlink">
 <metadata>
  <rdf:RDF xmlns:cc="http://creativecommons.org/ns#" xmlns:dc="http://purl.org/dc/elements/1.1/" xmlns:rdf="http://www.w3.org/1999/02/22-rdf-syntax-ns#">
   <cc:Work>
    <dc:type rdf:resource="http://purl.org/dc/dcmitype/StillImage"/>
    <dc:date>2021-08-27T13:01:03.682534</dc:date>
    <dc:format>image/svg+xml</dc:format>
    <dc:creator>
     <cc:Agent>
      <dc:title>Matplotlib v3.4.2, https://matplotlib.org/</dc:title>
     </cc:Agent>
    </dc:creator>
   </cc:Work>
  </rdf:RDF>
 </metadata>
 <defs>
  <style type="text/css">*{stroke-linecap:butt;stroke-linejoin:round;}</style>
 </defs>
 <g id="figure_1">
  <g id="patch_1">
   <path d="M 0 470.565312 
L 475.701562 470.565312 
L 475.701562 0 
L 0 0 
z
" style="fill:#ffffff;"/>
  </g>
  <g id="axes_1">
   <g id="patch_2">
    <path d="M 22.101562 450.72 
L 468.501562 450.72 
L 468.501562 7.2 
L 22.101562 7.2 
z
" style="fill:#ffffff;"/>
   </g>
   <g id="matplotlib.axis_1">
    <g id="xtick_1">
     <g id="line2d_1">
      <path clip-path="url(#p558198d349)" d="M 53.987277 450.72 
L 53.987277 7.2 
" style="fill:none;stroke:#cccccc;stroke-linecap:round;stroke-width:0.8;"/>
     </g>
     <g id="line2d_2"/>
     <g id="text_1">
      <!-- −6 -->
      <g style="fill:#262626;" transform="translate(48.286496 461.377812)scale(0.1 -0.1)">
       <defs>
        <path d="M 3381 1997 
L 356 1997 
L 356 2522 
L 3381 2522 
L 3381 1997 
z
" id="ArialMT-2212" transform="scale(0.015625)"/>
        <path d="M 3184 3459 
L 2625 3416 
Q 2550 3747 2413 3897 
Q 2184 4138 1850 4138 
Q 1581 4138 1378 3988 
Q 1113 3794 959 3422 
Q 806 3050 800 2363 
Q 1003 2672 1297 2822 
Q 1591 2972 1913 2972 
Q 2475 2972 2870 2558 
Q 3266 2144 3266 1488 
Q 3266 1056 3080 686 
Q 2894 316 2569 119 
Q 2244 -78 1831 -78 
Q 1128 -78 684 439 
Q 241 956 241 2144 
Q 241 3472 731 4075 
Q 1159 4600 1884 4600 
Q 2425 4600 2770 4297 
Q 3116 3994 3184 3459 
z
M 888 1484 
Q 888 1194 1011 928 
Q 1134 663 1356 523 
Q 1578 384 1822 384 
Q 2178 384 2434 671 
Q 2691 959 2691 1453 
Q 2691 1928 2437 2201 
Q 2184 2475 1800 2475 
Q 1419 2475 1153 2201 
Q 888 1928 888 1484 
z
" id="ArialMT-36" transform="scale(0.015625)"/>
       </defs>
       <use xlink:href="#ArialMT-2212"/>
       <use x="58.398438" xlink:href="#ArialMT-36"/>
      </g>
     </g>
    </g>
    <g id="xtick_2">
     <g id="line2d_3">
      <path clip-path="url(#p558198d349)" d="M 117.758705 450.72 
L 117.758705 7.2 
" style="fill:none;stroke:#cccccc;stroke-linecap:round;stroke-width:0.8;"/>
     </g>
     <g id="line2d_4"/>
     <g id="text_2">
      <!-- −4 -->
      <g style="fill:#262626;" transform="translate(112.057924 461.377812)scale(0.1 -0.1)">
       <defs>
        <path d="M 2069 0 
L 2069 1097 
L 81 1097 
L 81 1613 
L 2172 4581 
L 2631 4581 
L 2631 1613 
L 3250 1613 
L 3250 1097 
L 2631 1097 
L 2631 0 
L 2069 0 
z
M 2069 1613 
L 2069 3678 
L 634 1613 
L 2069 1613 
z
" id="ArialMT-34" transform="scale(0.015625)"/>
       </defs>
       <use xlink:href="#ArialMT-2212"/>
       <use x="58.398438" xlink:href="#ArialMT-34"/>
      </g>
     </g>
    </g>
    <g id="xtick_3">
     <g id="line2d_5">
      <path clip-path="url(#p558198d349)" d="M 181.530134 450.72 
L 181.530134 7.2 
" style="fill:none;stroke:#cccccc;stroke-linecap:round;stroke-width:0.8;"/>
     </g>
     <g id="line2d_6"/>
     <g id="text_3">
      <!-- −2 -->
      <g style="fill:#262626;" transform="translate(175.829353 461.377812)scale(0.1 -0.1)">
       <defs>
        <path d="M 3222 541 
L 3222 0 
L 194 0 
Q 188 203 259 391 
Q 375 700 629 1000 
Q 884 1300 1366 1694 
Q 2113 2306 2375 2664 
Q 2638 3022 2638 3341 
Q 2638 3675 2398 3904 
Q 2159 4134 1775 4134 
Q 1369 4134 1125 3890 
Q 881 3647 878 3216 
L 300 3275 
Q 359 3922 746 4261 
Q 1134 4600 1788 4600 
Q 2447 4600 2831 4234 
Q 3216 3869 3216 3328 
Q 3216 3053 3103 2787 
Q 2991 2522 2730 2228 
Q 2469 1934 1863 1422 
Q 1356 997 1212 845 
Q 1069 694 975 541 
L 3222 541 
z
" id="ArialMT-32" transform="scale(0.015625)"/>
       </defs>
       <use xlink:href="#ArialMT-2212"/>
       <use x="58.398438" xlink:href="#ArialMT-32"/>
      </g>
     </g>
    </g>
    <g id="xtick_4">
     <g id="line2d_7">
      <path clip-path="url(#p558198d349)" d="M 245.301562 450.72 
L 245.301562 7.2 
" style="fill:none;stroke:#cccccc;stroke-linecap:round;stroke-width:0.8;"/>
     </g>
     <g id="line2d_8"/>
     <g id="text_4">
      <!-- 0 -->
      <g style="fill:#262626;" transform="translate(242.521094 461.377812)scale(0.1 -0.1)">
       <defs>
        <path d="M 266 2259 
Q 266 3072 433 3567 
Q 600 4063 929 4331 
Q 1259 4600 1759 4600 
Q 2128 4600 2406 4451 
Q 2684 4303 2865 4023 
Q 3047 3744 3150 3342 
Q 3253 2941 3253 2259 
Q 3253 1453 3087 958 
Q 2922 463 2592 192 
Q 2263 -78 1759 -78 
Q 1097 -78 719 397 
Q 266 969 266 2259 
z
M 844 2259 
Q 844 1131 1108 757 
Q 1372 384 1759 384 
Q 2147 384 2411 759 
Q 2675 1134 2675 2259 
Q 2675 3391 2411 3762 
Q 2147 4134 1753 4134 
Q 1366 4134 1134 3806 
Q 844 3388 844 2259 
z
" id="ArialMT-30" transform="scale(0.015625)"/>
       </defs>
       <use xlink:href="#ArialMT-30"/>
      </g>
     </g>
    </g>
    <g id="xtick_5">
     <g id="line2d_9">
      <path clip-path="url(#p558198d349)" d="M 309.072991 450.72 
L 309.072991 7.2 
" style="fill:none;stroke:#cccccc;stroke-linecap:round;stroke-width:0.8;"/>
     </g>
     <g id="line2d_10"/>
     <g id="text_5">
      <!-- 2 -->
      <g style="fill:#262626;" transform="translate(306.292522 461.377812)scale(0.1 -0.1)">
       <use xlink:href="#ArialMT-32"/>
      </g>
     </g>
    </g>
    <g id="xtick_6">
     <g id="line2d_11">
      <path clip-path="url(#p558198d349)" d="M 372.84442 450.72 
L 372.84442 7.2 
" style="fill:none;stroke:#cccccc;stroke-linecap:round;stroke-width:0.8;"/>
     </g>
     <g id="line2d_12"/>
     <g id="text_6">
      <!-- 4 -->
      <g style="fill:#262626;" transform="translate(370.063951 461.377812)scale(0.1 -0.1)">
       <use xlink:href="#ArialMT-34"/>
      </g>
     </g>
    </g>
    <g id="xtick_7">
     <g id="line2d_13">
      <path clip-path="url(#p558198d349)" d="M 436.615848 450.72 
L 436.615848 7.2 
" style="fill:none;stroke:#cccccc;stroke-linecap:round;stroke-width:0.8;"/>
     </g>
     <g id="line2d_14"/>
     <g id="text_7">
      <!-- 6 -->
      <g style="fill:#262626;" transform="translate(433.835379 461.377812)scale(0.1 -0.1)">
       <use xlink:href="#ArialMT-36"/>
      </g>
     </g>
    </g>
   </g>
   <g id="matplotlib.axis_2">
    <g id="ytick_1">
     <g id="line2d_15">
      <path clip-path="url(#p558198d349)" d="M 22.101562 419.04 
L 468.501562 419.04 
" style="fill:none;stroke:#cccccc;stroke-linecap:round;stroke-width:0.8;"/>
     </g>
     <g id="line2d_16"/>
     <g id="text_8">
      <!-- −6 -->
      <g style="fill:#262626;" transform="translate(7.2 422.618906)scale(0.1 -0.1)">
       <use xlink:href="#ArialMT-2212"/>
       <use x="58.398438" xlink:href="#ArialMT-36"/>
      </g>
     </g>
    </g>
    <g id="ytick_2">
     <g id="line2d_17">
      <path clip-path="url(#p558198d349)" d="M 22.101562 355.68 
L 468.501562 355.68 
" style="fill:none;stroke:#cccccc;stroke-linecap:round;stroke-width:0.8;"/>
     </g>
     <g id="line2d_18"/>
     <g id="text_9">
      <!-- −4 -->
      <g style="fill:#262626;" transform="translate(7.2 359.258906)scale(0.1 -0.1)">
       <use xlink:href="#ArialMT-2212"/>
       <use x="58.398438" xlink:href="#ArialMT-34"/>
      </g>
     </g>
    </g>
    <g id="ytick_3">
     <g id="line2d_19">
      <path clip-path="url(#p558198d349)" d="M 22.101562 292.32 
L 468.501562 292.32 
" style="fill:none;stroke:#cccccc;stroke-linecap:round;stroke-width:0.8;"/>
     </g>
     <g id="line2d_20"/>
     <g id="text_10">
      <!-- −2 -->
      <g style="fill:#262626;" transform="translate(7.2 295.898906)scale(0.1 -0.1)">
       <use xlink:href="#ArialMT-2212"/>
       <use x="58.398438" xlink:href="#ArialMT-32"/>
      </g>
     </g>
    </g>
    <g id="ytick_4">
     <g id="line2d_21">
      <path clip-path="url(#p558198d349)" d="M 22.101562 228.96 
L 468.501562 228.96 
" style="fill:none;stroke:#cccccc;stroke-linecap:round;stroke-width:0.8;"/>
     </g>
     <g id="line2d_22"/>
     <g id="text_11">
      <!-- 0 -->
      <g style="fill:#262626;" transform="translate(13.040625 232.538906)scale(0.1 -0.1)">
       <use xlink:href="#ArialMT-30"/>
      </g>
     </g>
    </g>
    <g id="ytick_5">
     <g id="line2d_23">
      <path clip-path="url(#p558198d349)" d="M 22.101562 165.6 
L 468.501562 165.6 
" style="fill:none;stroke:#cccccc;stroke-linecap:round;stroke-width:0.8;"/>
     </g>
     <g id="line2d_24"/>
     <g id="text_12">
      <!-- 2 -->
      <g style="fill:#262626;" transform="translate(13.040625 169.178906)scale(0.1 -0.1)">
       <use xlink:href="#ArialMT-32"/>
      </g>
     </g>
    </g>
    <g id="ytick_6">
     <g id="line2d_25">
      <path clip-path="url(#p558198d349)" d="M 22.101562 102.24 
L 468.501562 102.24 
" style="fill:none;stroke:#cccccc;stroke-linecap:round;stroke-width:0.8;"/>
     </g>
     <g id="line2d_26"/>
     <g id="text_13">
      <!-- 4 -->
      <g style="fill:#262626;" transform="translate(13.040625 105.818906)scale(0.1 -0.1)">
       <use xlink:href="#ArialMT-34"/>
      </g>
     </g>
    </g>
    <g id="ytick_7">
     <g id="line2d_27">
      <path clip-path="url(#p558198d349)" d="M 22.101562 38.88 
L 468.501562 38.88 
" style="fill:none;stroke:#cccccc;stroke-linecap:round;stroke-width:0.8;"/>
     </g>
     <g id="line2d_28"/>
     <g id="text_14">
      <!-- 6 -->
      <g style="fill:#262626;" transform="translate(13.040625 42.458906)scale(0.1 -0.1)">
       <use xlink:href="#ArialMT-36"/>
      </g>
     </g>
    </g>
   </g>
   <g id="PathCollection_1">
    <defs>
     <path d="M 0 5 
C 1.326016 5 2.597899 4.473168 3.535534 3.535534 
C 4.473168 2.597899 5 1.326016 5 0 
C 5 -1.326016 4.473168 -2.597899 3.535534 -3.535534 
C 2.597899 -4.473168 1.326016 -5 0 -5 
C -1.326016 -5 -2.597899 -4.473168 -3.535534 -3.535534 
C -4.473168 -2.597899 -5 -1.326016 -5 0 
C -5 1.326016 -4.473168 2.597899 -3.535534 3.535534 
C -2.597899 4.473168 -1.326016 5 0 5 
z
" id="m5f67e7d62a" style="stroke:#ff0000;"/>
    </defs>
    <g clip-path="url(#p558198d349)">
     <use style="stroke:#ff0000;" x="245.301562" xlink:href="#m5f67e7d62a" y="228.96"/>
    </g>
   </g>
   <g id="patch_3">
    <path clip-path="url(#p558198d349)" d="M 117.758705 228.96 
L 126.367848 226.1088 
L 126.367848 228.4848 
L 245.301562 228.4848 
L 245.301562 229.4352 
L 126.367848 229.4352 
L 126.367848 231.8112 
z
" style="fill:none;opacity:0.5;stroke:#ff0000;stroke-linejoin:miter;"/>
   </g>
   <g id="patch_4">
    <path clip-path="url(#p558198d349)" d="M 117.758705 228.96 
L 126.367848 226.1088 
L 126.367848 228.4848 
L 245.301562 228.4848 
L 245.301562 229.4352 
L 126.367848 229.4352 
L 126.367848 231.8112 
z
" style="fill:none;opacity:0.5;stroke:#ff0000;stroke-linejoin:miter;"/>
   </g>
   <g id="patch_5">
    <path clip-path="url(#p558198d349)" d="M 122.964536 193.125636 
L 132.033794 192.809631 
L 131.357537 195.088652 
L 245.436814 228.504196 
L 245.166311 229.415804 
L 131.087034 196.00026 
L 130.410777 198.27928 
z
" style="fill:none;opacity:0.5;stroke:#ff0000;stroke-linejoin:miter;"/>
   </g>
   <g id="patch_6">
    <path clip-path="url(#p558198d349)" d="M 122.964536 264.794364 
L 130.410777 259.64072 
L 131.087034 261.91974 
L 245.166311 228.504196 
L 245.436814 229.415804 
L 131.357537 262.831348 
L 132.033794 265.110369 
z
" style="fill:none;opacity:0.5;stroke:#ff0000;stroke-linejoin:miter;"/>
   </g>
   <g id="patch_7">
    <path clip-path="url(#p558198d349)" d="M 128.170367 178.813225 
L 137.212352 179.579684 
L 136.265994 181.761724 
L 245.490834 228.523592 
L 245.112291 229.396408 
L 135.887451 182.634541 
L 134.941094 184.816581 
z
" style="fill:none;opacity:0.5;stroke:#ff0000;stroke-linejoin:miter;"/>
   </g>
   <g id="patch_8">
    <path clip-path="url(#p558198d349)" d="M 128.170367 279.106775 
L 134.941094 273.103419 
L 135.887451 275.285459 
L 245.112291 228.523592 
L 245.490834 229.396408 
L 136.265994 276.158276 
L 137.212352 278.340316 
z
" style="fill:none;opacity:0.5;stroke:#ff0000;stroke-linejoin:miter;"/>
   </g>
   <g id="patch_9">
    <path clip-path="url(#p558198d349)" d="M 133.376198 168.19988 
L 142.30714 169.799115 
L 141.16049 171.884176 
L 245.530892 228.542988 
L 245.072233 229.377012 
L 140.70183 172.7182 
L 139.55518 174.803262 
z
" style="fill:none;opacity:0.5;stroke:#ff0000;stroke-linejoin:miter;"/>
   </g>
   <g id="patch_10">
    <path clip-path="url(#p558198d349)" d="M 133.376198 289.72012 
L 139.55518 283.116738 
L 140.70183 285.2018 
L 245.072233 228.542988 
L 245.530892 229.377012 
L 141.16049 286.035824 
L 142.30714 288.120885 
z
" style="fill:none;opacity:0.5;stroke:#ff0000;stroke-linejoin:miter;"/>
   </g>
   <g id="patch_11">
    <path clip-path="url(#p558198d349)" d="M 138.582029 159.567053 
L 147.357077 161.865379 
L 146.047511 163.85346 
L 245.563476 228.562384 
L 245.039649 229.357616 
L 145.523684 164.648693 
L 144.214118 166.636775 
z
" style="fill:none;opacity:0.5;stroke:#ff0000;stroke-linejoin:miter;"/>
   </g>
   <g id="patch_12">
    <path clip-path="url(#p558198d349)" d="M 138.582029 298.352947 
L 144.214118 291.283225 
L 145.523684 293.271307 
L 245.039649 228.562384 
L 245.563476 229.357616 
L 146.047511 294.06654 
L 147.357077 296.054621 
z
" style="fill:none;opacity:0.5;stroke:#ff0000;stroke-linejoin:miter;"/>
   </g>
   <g id="patch_13">
    <path clip-path="url(#p558198d349)" d="M 143.78786 152.24321 
L 152.377371 155.152271 
L 150.929591 157.043373 
L 245.591119 228.58178 
L 245.012006 229.33822 
L 150.350479 157.799814 
L 148.902698 159.690916 
z
" style="fill:none;opacity:0.5;stroke:#ff0000;stroke-linejoin:miter;"/>
   </g>
   <g id="patch_14">
    <path clip-path="url(#p558198d349)" d="M 143.78786 305.67679 
L 148.902698 298.229084 
L 150.350479 300.120186 
L 245.012006 228.58178 
L 245.591119 229.33822 
L 150.929591 300.876627 
L 152.377371 302.767729 
z
" style="fill:none;opacity:0.5;stroke:#ff0000;stroke-linejoin:miter;"/>
   </g>
   <g id="patch_15">
    <path clip-path="url(#p558198d349)" d="M 148.993691 145.881445 
L 157.375878 149.336301 
L 155.80804 151.130423 
L 245.61513 228.601176 
L 244.987995 229.318824 
L 155.180905 151.848072 
L 153.613067 153.642195 
z
" style="fill:none;opacity:0.5;stroke:#ff0000;stroke-linejoin:miter;"/>
   </g>
   <g id="patch_16">
    <path clip-path="url(#p558198d349)" d="M 148.993691 312.038555 
L 153.613067 304.277805 
L 155.180905 306.071928 
L 244.987995 228.601176 
L 245.61513 229.318824 
L 155.80804 306.789577 
L 157.375878 308.583699 
z
" style="fill:none;opacity:0.5;stroke:#ff0000;stroke-linejoin:miter;"/>
   </g>
   <g id="patch_17">
    <path clip-path="url(#p558198d349)" d="M 154.199522 140.274474 
L 162.357291 144.224176 
L 160.68364 145.921319 
L 245.636293 228.620571 
L 244.966832 229.299429 
L 160.014179 146.600176 
L 158.340528 148.297319 
z
" style="fill:none;opacity:0.5;stroke:#ff0000;stroke-linejoin:miter;"/>
   </g>
   <g id="patch_18">
    <path clip-path="url(#p558198d349)" d="M 154.199522 317.645526 
L 158.340528 309.622681 
L 160.014179 311.319824 
L 244.966832 228.620571 
L 245.636293 229.299429 
L 160.68364 311.998681 
L 162.357291 313.695824 
z
" style="fill:none;opacity:0.5;stroke:#ff0000;stroke-linejoin:miter;"/>
   </g>
   <g id="patch_19">
    <path clip-path="url(#p558198d349)" d="M 159.405353 135.286661 
L 167.324683 139.689415 
L 165.556903 141.289579 
L 245.655119 228.639967 
L 244.948006 229.280033 
L 164.849791 141.929644 
L 163.082011 143.529807 
z
" style="fill:none;opacity:0.5;stroke:#ff0000;stroke-linejoin:miter;"/>
   </g>
   <g id="patch_20">
    <path clip-path="url(#p558198d349)" d="M 159.405353 322.633339 
L 163.082011 314.390193 
L 164.849791 315.990356 
L 244.948006 228.639967 
L 245.655119 229.280033 
L 165.556903 316.630421 
L 167.324683 318.230585 
z
" style="fill:none;opacity:0.5;stroke:#ff0000;stroke-linejoin:miter;"/>
   </g>
   <g id="patch_21">
    <path clip-path="url(#p558198d349)" d="M 164.611183 130.823553 
L 172.280192 135.643943 
L 170.428185 137.147126 
L 245.671964 228.659363 
L 244.931161 229.260637 
L 169.687383 137.7484 
L 167.835376 139.251584 
z
" style="fill:none;opacity:0.5;stroke:#ff0000;stroke-linejoin:miter;"/>
   </g>
   <g id="patch_22">
    <path clip-path="url(#p558198d349)" d="M 164.611183 327.096447 
L 167.835376 318.668416 
L 169.687383 320.1716 
L 244.931161 228.659363 
L 245.671964 229.260637 
L 170.428185 320.772874 
L 172.280192 322.276057 
z
" style="fill:none;opacity:0.5;stroke:#ff0000;stroke-linejoin:miter;"/>
   </g>
   <g id="patch_23">
    <path clip-path="url(#p558198d349)" d="M 169.817014 126.816348 
L 177.225377 132.023599 
L 175.297747 133.429803 
L 245.687088 228.678759 
L 244.916037 229.241241 
L 174.526695 133.992285 
L 172.599066 135.398489 
z
" style="fill:none;opacity:0.5;stroke:#ff0000;stroke-linejoin:miter;"/>
   </g>
   <g id="patch_24">
    <path clip-path="url(#p558198d349)" d="M 169.817014 331.103652 
L 172.599066 322.521511 
L 174.526695 323.927715 
L 244.916037 228.678759 
L 245.687088 229.241241 
L 175.297747 324.490197 
L 177.225377 325.896401 
z
" style="fill:none;opacity:0.5;stroke:#ff0000;stroke-linejoin:miter;"/>
   </g>
   <g id="patch_25">
    <path clip-path="url(#p558198d349)" d="M 175.022845 123.213203 
L 182.161412 128.780043 
L 180.165784 130.089267 
L 245.700688 228.698155 
L 244.902437 229.221845 
L 179.367533 130.612957 
L 177.371906 131.922181 
z
" style="fill:none;opacity:0.5;stroke:#ff0000;stroke-linejoin:miter;"/>
   </g>
   <g id="patch_26">
    <path clip-path="url(#p558198d349)" d="M 175.022845 334.706797 
L 177.371906 325.997819 
L 179.367533 327.307043 
L 244.902437 228.698155 
L 245.700688 229.221845 
L 180.165784 327.830733 
L 182.161412 329.139957 
z
" style="fill:none;opacity:0.5;stroke:#ff0000;stroke-linejoin:miter;"/>
   </g>
   <g id="patch_27">
    <path clip-path="url(#p558198d349)" d="M 180.228676 119.974037 
L 187.089203 125.875896 
L 185.032447 127.088141 
L 245.712914 228.717551 
L 244.890211 229.202449 
L 184.209745 127.573039 
L 182.152989 128.785284 
z
" style="fill:none;opacity:0.5;stroke:#ff0000;stroke-linejoin:miter;"/>
   </g>
   <g id="patch_28">
    <path clip-path="url(#p558198d349)" d="M 180.228676 337.945963 
L 182.152989 329.134716 
L 184.209745 330.346961 
L 244.890211 228.717551 
L 245.712914 229.202449 
L 185.032447 330.831859 
L 187.089203 332.044104 
z
" style="fill:none;opacity:0.5;stroke:#ff0000;stroke-linejoin:miter;"/>
   </g>
   <g id="patch_29">
    <path clip-path="url(#p558198d349)" d="M 185.434507 117.067235 
L 192.009469 123.281678 
L 189.897856 124.396943 
L 245.723885 228.736947 
L 244.87924 229.183053 
L 189.053211 124.84305 
L 186.941598 125.958315 
z
" style="fill:none;opacity:0.5;stroke:#ff0000;stroke-linejoin:miter;"/>
   </g>
   <g id="patch_30">
    <path clip-path="url(#p558198d349)" d="M 185.434507 340.852765 
L 186.941598 331.961685 
L 189.053211 333.07695 
L 244.87924 228.736947 
L 245.723885 229.183053 
L 189.897856 333.523057 
L 192.009469 334.638322 
z
" style="fill:none;opacity:0.5;stroke:#ff0000;stroke-linejoin:miter;"/>
   </g>
   <g id="patch_31">
    <path clip-path="url(#p558198d349)" d="M 190.640338 114.467479 
L 196.92278 120.973781 
L 194.762106 121.992067 
L 245.733697 228.756343 
L 244.869428 229.163657 
L 193.897836 122.399381 
L 191.737161 123.417667 
z
" style="fill:none;opacity:0.5;stroke:#ff0000;stroke-linejoin:miter;"/>
   </g>
   <g id="patch_32">
    <path clip-path="url(#p558198d349)" d="M 190.640338 343.452521 
L 191.737161 334.502333 
L 193.897836 335.520619 
L 244.869428 228.756343 
L 245.733697 229.163657 
L 194.762106 335.927933 
L 196.92278 336.946219 
z
" style="fill:none;opacity:0.5;stroke:#ff0000;stroke-linejoin:miter;"/>
   </g>
   <g id="patch_33">
    <path clip-path="url(#p558198d349)" d="M 195.846169 112.154265 
L 201.829603 118.933084 
L 199.625274 119.854391 
L 245.742428 228.775739 
L 244.860697 229.144261 
L 198.743542 120.222913 
L 196.539213 121.144219 
z
" style="fill:none;opacity:0.5;stroke:#ff0000;stroke-linejoin:miter;"/>
   </g>
   <g id="patch_34">
    <path clip-path="url(#p558198d349)" d="M 195.846169 345.765735 
L 196.539213 336.775781 
L 198.743542 337.697087 
L 244.860697 228.775739 
L 245.742428 229.144261 
L 199.625274 338.065609 
L 201.829603 338.986916 
z
" style="fill:none;opacity:0.5;stroke:#ff0000;stroke-linejoin:miter;"/>
   </g>
   <g id="patch_35">
    <path clip-path="url(#p558198d349)" d="M 201.052 110.110861 
L 206.730315 117.143986 
L 204.487424 117.968312 
L 245.750141 228.795135 
L 244.852984 229.124865 
L 203.590267 118.298043 
L 201.347375 119.122369 
z
" style="fill:none;opacity:0.5;stroke:#ff0000;stroke-linejoin:miter;"/>
   </g>
   <g id="patch_36">
    <path clip-path="url(#p558198d349)" d="M 201.052 347.809139 
L 201.347375 338.797631 
L 203.590267 339.621957 
L 244.852984 228.795135 
L 245.750141 229.124865 
L 204.487424 339.951688 
L 206.730315 340.776014 
z
" style="fill:none;opacity:0.5;stroke:#ff0000;stroke-linejoin:miter;"/>
   </g>
   <g id="patch_37">
    <path clip-path="url(#p558198d349)" d="M 206.257831 108.323555 
L 211.625228 115.593699 
L 209.348607 116.321046 
L 245.756887 228.814531 
L 244.846238 229.105469 
L 208.437958 116.611985 
L 206.161337 117.339332 
z
" style="fill:none;opacity:0.5;stroke:#ff0000;stroke-linejoin:miter;"/>
   </g>
   <g id="patch_38">
    <path clip-path="url(#p558198d349)" d="M 206.257831 349.596445 
L 206.161337 340.580668 
L 208.437958 341.308015 
L 244.846238 228.814531 
L 245.756887 229.105469 
L 209.348607 341.598954 
L 211.625228 342.326301 
z
" style="fill:none;opacity:0.5;stroke:#ff0000;stroke-linejoin:miter;"/>
   </g>
   <g id="patch_39">
    <path clip-path="url(#p558198d349)" d="M 211.463662 106.781109 
L 216.514596 114.271743 
L 214.208866 114.902111 
L 245.762708 228.833927 
L 244.840417 229.086073 
L 213.286574 115.154257 
L 210.980844 115.784625 
z
" style="fill:none;opacity:0.5;stroke:#ff0000;stroke-linejoin:miter;"/>
   </g>
   <g id="patch_40">
    <path clip-path="url(#p558198d349)" d="M 211.463662 351.138891 
L 210.980844 342.135375 
L 213.286574 342.765743 
L 244.840417 228.833927 
L 245.762708 229.086073 
L 214.208866 343.017889 
L 216.514596 343.648257 
z
" style="fill:none;opacity:0.5;stroke:#ff0000;stroke-linejoin:miter;"/>
   </g>
   <g id="patch_41">
    <path clip-path="url(#p558198d349)" d="M 216.669493 105.474346 
L 221.398626 113.169562 
L 219.068235 113.70295 
L 245.767641 228.853322 
L 244.835484 229.066678 
L 218.136079 113.916305 
L 215.805688 114.449693 
z
" style="fill:none;opacity:0.5;stroke:#ff0000;stroke-linejoin:miter;"/>
   </g>
   <g id="patch_42">
    <path clip-path="url(#p558198d349)" d="M 216.669493 352.445654 
L 215.805688 343.470307 
L 218.136079 344.003695 
L 244.835484 228.853322 
L 245.767641 229.066678 
L 219.068235 344.21705 
L 221.398626 344.750438 
z
" style="fill:none;opacity:0.5;stroke:#ff0000;stroke-linejoin:miter;"/>
   </g>
   <g id="patch_43">
    <path clip-path="url(#p558198d349)" d="M 221.875323 104.395848 
L 226.277487 112.280238 
L 223.926743 112.716646 
L 245.771711 228.872718 
L 244.831414 229.047282 
L 222.986446 112.89121 
L 220.635702 113.327618 
z
" style="fill:none;opacity:0.5;stroke:#ff0000;stroke-linejoin:miter;"/>
   </g>
   <g id="patch_44">
    <path clip-path="url(#p558198d349)" d="M 221.875323 353.524152 
L 220.635702 344.592382 
L 222.986446 345.02879 
L 244.831414 228.872718 
L 245.771711 229.047282 
L 223.926743 345.203354 
L 226.277487 345.639762 
z
" style="fill:none;opacity:0.5;stroke:#ff0000;stroke-linejoin:miter;"/>
   </g>
   <g id="patch_45">
    <path clip-path="url(#p558198d349)" d="M 227.081154 103.539727 
L 231.151312 111.598281 
L 228.784412 111.937709 
L 245.774943 228.892114 
L 244.828182 229.027886 
L 227.837652 112.073481 
L 225.470751 112.412909 
z
" style="fill:none;opacity:0.5;stroke:#ff0000;stroke-linejoin:miter;"/>
   </g>
   <g id="patch_46">
    <path clip-path="url(#p558198d349)" d="M 227.081154 354.380273 
L 225.470751 345.507091 
L 227.837652 345.846519 
L 244.828182 228.892114 
L 245.774943 229.027886 
L 228.784412 345.982291 
L 231.151312 346.321719 
z
" style="fill:none;opacity:0.5;stroke:#ff0000;stroke-linejoin:miter;"/>
   </g>
   <g id="patch_47">
    <path clip-path="url(#p558198d349)" d="M 232.286985 102.901451 
L 236.020204 111.119465 
L 233.641258 111.361914 
L 245.777352 228.91151 
L 244.825773 229.00849 
L 232.68968 111.458893 
L 230.310734 111.701342 
z
" style="fill:none;opacity:0.5;stroke:#ff0000;stroke-linejoin:miter;"/>
   </g>
   <g id="patch_48">
    <path clip-path="url(#p558198d349)" d="M 232.286985 355.018549 
L 230.310734 346.218658 
L 232.68968 346.461107 
L 244.825773 228.91151 
L 245.777352 229.00849 
L 233.641258 346.558086 
L 236.020204 346.800535 
z
" style="fill:none;opacity:0.5;stroke:#ff0000;stroke-linejoin:miter;"/>
   </g>
   <g id="patch_49">
    <path clip-path="url(#p558198d349)" d="M 237.492816 102.477724 
L 240.884237 110.840714 
L 238.497295 110.986184 
L 245.778951 228.930906 
L 244.824174 228.989094 
L 237.542518 111.044372 
L 235.155576 111.189841 
z
" style="fill:none;opacity:0.5;stroke:#ff0000;stroke-linejoin:miter;"/>
   </g>
   <g id="patch_50">
    <path clip-path="url(#p558198d349)" d="M 237.492816 355.442276 
L 235.155576 346.730159 
L 237.542518 346.875628 
L 244.824174 228.930906 
L 245.778951 228.989094 
L 238.497295 346.933816 
L 240.884237 347.079286 
z
" style="fill:none;opacity:0.5;stroke:#ff0000;stroke-linejoin:miter;"/>
   </g>
   <g id="patch_51">
    <path clip-path="url(#p558198d349)" d="M 242.698647 102.266392 
L 245.74346 110.760023 
L 243.35253 110.808512 
L 245.779749 228.950302 
L 244.823376 228.969698 
L 242.396158 110.827908 
L 240.005227 110.876398 
z
" style="fill:none;opacity:0.5;stroke:#ff0000;stroke-linejoin:miter;"/>
   </g>
   <g id="patch_52">
    <path clip-path="url(#p558198d349)" d="M 242.698647 355.653608 
L 240.005227 347.043602 
L 242.396158 347.092092 
L 244.823376 228.950302 
L 245.779749 228.969698 
L 243.35253 347.111488 
L 245.74346 347.159977 
z
" style="fill:none;opacity:0.5;stroke:#ff0000;stroke-linejoin:miter;"/>
   </g>
   <g id="patch_53">
    <path clip-path="url(#p558198d349)" d="M 247.904478 102.266392 
L 250.597898 110.876398 
L 248.206967 110.827908 
L 245.779749 228.969698 
L 244.823376 228.950302 
L 247.250595 110.808512 
L 244.859665 110.760023 
z
" style="fill:none;opacity:0.5;stroke:#ff0000;stroke-linejoin:miter;"/>
   </g>
   <g id="patch_54">
    <path clip-path="url(#p558198d349)" d="M 247.904478 355.653608 
L 244.859665 347.159977 
L 247.250595 347.111488 
L 244.823376 228.969698 
L 245.779749 228.950302 
L 248.206967 347.092092 
L 250.597898 347.043602 
z
" style="fill:none;opacity:0.5;stroke:#ff0000;stroke-linejoin:miter;"/>
   </g>
   <g id="patch_55">
    <path clip-path="url(#p558198d349)" d="M 253.110309 102.477724 
L 255.447549 111.189841 
L 253.060607 111.044372 
L 245.778951 228.989094 
L 244.824174 228.930906 
L 252.10583 110.986184 
L 249.718888 110.840714 
z
" style="fill:none;opacity:0.5;stroke:#ff0000;stroke-linejoin:miter;"/>
   </g>
   <g id="patch_56">
    <path clip-path="url(#p558198d349)" d="M 253.110309 355.442276 
L 249.718888 347.079286 
L 252.10583 346.933816 
L 244.824174 228.989094 
L 245.778951 228.930906 
L 253.060607 346.875628 
L 255.447549 346.730159 
z
" style="fill:none;opacity:0.5;stroke:#ff0000;stroke-linejoin:miter;"/>
   </g>
   <g id="patch_57">
    <path clip-path="url(#p558198d349)" d="M 258.31614 102.901451 
L 260.292391 111.701342 
L 257.913445 111.458893 
L 245.777352 229.00849 
L 244.825773 228.91151 
L 256.961867 111.361914 
L 254.582921 111.119465 
z
" style="fill:none;opacity:0.5;stroke:#ff0000;stroke-linejoin:miter;"/>
   </g>
   <g id="patch_58">
    <path clip-path="url(#p558198d349)" d="M 258.31614 355.018549 
L 254.582921 346.800535 
L 256.961867 346.558086 
L 244.825773 229.00849 
L 245.777352 228.91151 
L 257.913445 346.461107 
L 260.292391 346.218658 
z
" style="fill:none;opacity:0.5;stroke:#ff0000;stroke-linejoin:miter;"/>
   </g>
   <g id="patch_59">
    <path clip-path="url(#p558198d349)" d="M 263.521971 103.539727 
L 265.132374 112.412909 
L 262.765473 112.073481 
L 245.774943 229.027886 
L 244.828182 228.892114 
L 261.818713 111.937709 
L 259.451813 111.598281 
z
" style="fill:none;opacity:0.5;stroke:#ff0000;stroke-linejoin:miter;"/>
   </g>
   <g id="patch_60">
    <path clip-path="url(#p558198d349)" d="M 263.521971 354.380273 
L 259.451813 346.321719 
L 261.818713 345.982291 
L 244.828182 229.027886 
L 245.774943 228.892114 
L 262.765473 345.846519 
L 265.132374 345.507091 
z
" style="fill:none;opacity:0.5;stroke:#ff0000;stroke-linejoin:miter;"/>
   </g>
   <g id="patch_61">
    <path clip-path="url(#p558198d349)" d="M 268.727802 104.395848 
L 269.967423 113.327618 
L 267.616679 112.89121 
L 245.771711 229.047282 
L 244.831414 228.872718 
L 266.676382 112.716646 
L 264.325638 112.280238 
z
" style="fill:none;opacity:0.5;stroke:#ff0000;stroke-linejoin:miter;"/>
   </g>
   <g id="patch_62">
    <path clip-path="url(#p558198d349)" d="M 268.727802 353.524152 
L 264.325638 345.639762 
L 266.676382 345.203354 
L 244.831414 229.047282 
L 245.771711 228.872718 
L 267.616679 345.02879 
L 269.967423 344.592382 
z
" style="fill:none;opacity:0.5;stroke:#ff0000;stroke-linejoin:miter;"/>
   </g>
   <g id="patch_63">
    <path clip-path="url(#p558198d349)" d="M 273.933632 105.474346 
L 274.797437 114.449693 
L 272.467046 113.916305 
L 245.767641 229.066678 
L 244.835484 228.853322 
L 271.53489 113.70295 
L 269.204499 113.169562 
z
" style="fill:none;opacity:0.5;stroke:#ff0000;stroke-linejoin:miter;"/>
   </g>
   <g id="patch_64">
    <path clip-path="url(#p558198d349)" d="M 273.933632 352.445654 
L 269.204499 344.750438 
L 271.53489 344.21705 
L 244.835484 229.066678 
L 245.767641 228.853322 
L 272.467046 344.003695 
L 274.797437 343.470307 
z
" style="fill:none;opacity:0.5;stroke:#ff0000;stroke-linejoin:miter;"/>
   </g>
   <g id="patch_65">
    <path clip-path="url(#p558198d349)" d="M 279.139463 106.781109 
L 279.622281 115.784625 
L 277.316551 115.154257 
L 245.762708 229.086073 
L 244.840417 228.833927 
L 276.394259 114.902111 
L 274.088529 114.271743 
z
" style="fill:none;opacity:0.5;stroke:#ff0000;stroke-linejoin:miter;"/>
   </g>
   <g id="patch_66">
    <path clip-path="url(#p558198d349)" d="M 279.139463 351.138891 
L 274.088529 343.648257 
L 276.394259 343.017889 
L 244.840417 229.086073 
L 245.762708 228.833927 
L 277.316551 342.765743 
L 279.622281 342.135375 
z
" style="fill:none;opacity:0.5;stroke:#ff0000;stroke-linejoin:miter;"/>
   </g>
   <g id="patch_67">
    <path clip-path="url(#p558198d349)" d="M 284.345294 108.323555 
L 284.441788 117.339332 
L 282.165167 116.611985 
L 245.756887 229.105469 
L 244.846238 228.814531 
L 281.254518 116.321046 
L 278.977897 115.593699 
z
" style="fill:none;opacity:0.5;stroke:#ff0000;stroke-linejoin:miter;"/>
   </g>
   <g id="patch_68">
    <path clip-path="url(#p558198d349)" d="M 284.345294 349.596445 
L 278.977897 342.326301 
L 281.254518 341.598954 
L 244.846238 229.105469 
L 245.756887 228.814531 
L 282.165167 341.308015 
L 284.441788 340.580668 
z
" style="fill:none;opacity:0.5;stroke:#ff0000;stroke-linejoin:miter;"/>
   </g>
   <g id="patch_69">
    <path clip-path="url(#p558198d349)" d="M 289.551125 110.110861 
L 289.25575 119.122369 
L 287.012858 118.298043 
L 245.750141 229.124865 
L 244.852984 228.795135 
L 286.115701 117.968312 
L 283.87281 117.143986 
z
" style="fill:none;opacity:0.5;stroke:#ff0000;stroke-linejoin:miter;"/>
   </g>
   <g id="patch_70">
    <path clip-path="url(#p558198d349)" d="M 289.551125 347.809139 
L 283.87281 340.776014 
L 286.115701 339.951688 
L 244.852984 229.124865 
L 245.750141 228.795135 
L 287.012858 339.621957 
L 289.25575 338.797631 
z
" style="fill:none;opacity:0.5;stroke:#ff0000;stroke-linejoin:miter;"/>
   </g>
   <g id="patch_71">
    <path clip-path="url(#p558198d349)" d="M 294.756956 112.154265 
L 294.063912 121.144219 
L 291.859583 120.222913 
L 245.742428 229.144261 
L 244.860697 228.775739 
L 290.977851 119.854391 
L 288.773522 118.933084 
z
" style="fill:none;opacity:0.5;stroke:#ff0000;stroke-linejoin:miter;"/>
   </g>
   <g id="patch_72">
    <path clip-path="url(#p558198d349)" d="M 294.756956 345.765735 
L 288.773522 338.986916 
L 290.977851 338.065609 
L 244.860697 229.144261 
L 245.742428 228.775739 
L 291.859583 337.697087 
L 294.063912 336.775781 
z
" style="fill:none;opacity:0.5;stroke:#ff0000;stroke-linejoin:miter;"/>
   </g>
   <g id="patch_73">
    <path clip-path="url(#p558198d349)" d="M 299.962787 114.467479 
L 298.865964 123.417667 
L 296.705289 122.399381 
L 245.733697 229.163657 
L 244.869428 228.756343 
L 295.841019 121.992067 
L 293.680345 120.973781 
z
" style="fill:none;opacity:0.5;stroke:#ff0000;stroke-linejoin:miter;"/>
   </g>
   <g id="patch_74">
    <path clip-path="url(#p558198d349)" d="M 299.962787 343.452521 
L 293.680345 336.946219 
L 295.841019 335.927933 
L 244.869428 229.163657 
L 245.733697 228.756343 
L 296.705289 335.520619 
L 298.865964 334.502333 
z
" style="fill:none;opacity:0.5;stroke:#ff0000;stroke-linejoin:miter;"/>
   </g>
   <g id="patch_75">
    <path clip-path="url(#p558198d349)" d="M 305.168618 117.067235 
L 303.661527 125.958315 
L 301.549914 124.84305 
L 245.723885 229.183053 
L 244.87924 228.736947 
L 300.705269 124.396943 
L 298.593656 123.281678 
z
" style="fill:none;opacity:0.5;stroke:#ff0000;stroke-linejoin:miter;"/>
   </g>
   <g id="patch_76">
    <path clip-path="url(#p558198d349)" d="M 305.168618 340.852765 
L 298.593656 334.638322 
L 300.705269 333.523057 
L 244.87924 229.183053 
L 245.723885 228.736947 
L 301.549914 333.07695 
L 303.661527 331.961685 
z
" style="fill:none;opacity:0.5;stroke:#ff0000;stroke-linejoin:miter;"/>
   </g>
   <g id="patch_77">
    <path clip-path="url(#p558198d349)" d="M 310.374449 119.974037 
L 308.450136 128.785284 
L 306.39338 127.573039 
L 245.712914 229.202449 
L 244.890211 228.717551 
L 305.570678 127.088141 
L 303.513922 125.875896 
z
" style="fill:none;opacity:0.5;stroke:#ff0000;stroke-linejoin:miter;"/>
   </g>
   <g id="patch_78">
    <path clip-path="url(#p558198d349)" d="M 310.374449 337.945963 
L 303.513922 332.044104 
L 305.570678 330.831859 
L 244.890211 229.202449 
L 245.712914 228.717551 
L 306.39338 330.346961 
L 308.450136 329.134716 
z
" style="fill:none;opacity:0.5;stroke:#ff0000;stroke-linejoin:miter;"/>
   </g>
   <g id="patch_79">
    <path clip-path="url(#p558198d349)" d="M 315.58028 123.213203 
L 313.231219 131.922181 
L 311.235592 130.612957 
L 245.700688 229.221845 
L 244.902437 228.698155 
L 310.437341 130.089267 
L 308.441713 128.780043 
z
" style="fill:none;opacity:0.5;stroke:#ff0000;stroke-linejoin:miter;"/>
   </g>
   <g id="patch_80">
    <path clip-path="url(#p558198d349)" d="M 315.58028 334.706797 
L 308.441713 329.139957 
L 310.437341 327.830733 
L 244.902437 229.221845 
L 245.700688 228.698155 
L 311.235592 327.307043 
L 313.231219 325.997819 
z
" style="fill:none;opacity:0.5;stroke:#ff0000;stroke-linejoin:miter;"/>
   </g>
   <g id="patch_81">
    <path clip-path="url(#p558198d349)" d="M 320.786111 126.816348 
L 318.004059 135.398489 
L 316.07643 133.992285 
L 245.687088 229.241241 
L 244.916037 228.678759 
L 315.305378 133.429803 
L 313.377748 132.023599 
z
" style="fill:none;opacity:0.5;stroke:#ff0000;stroke-linejoin:miter;"/>
   </g>
   <g id="patch_82">
    <path clip-path="url(#p558198d349)" d="M 320.786111 331.103652 
L 313.377748 325.896401 
L 315.305378 324.490197 
L 244.916037 229.241241 
L 245.687088 228.678759 
L 316.07643 323.927715 
L 318.004059 322.521511 
z
" style="fill:none;opacity:0.5;stroke:#ff0000;stroke-linejoin:miter;"/>
   </g>
   <g id="patch_83">
    <path clip-path="url(#p558198d349)" d="M 325.991942 130.823553 
L 322.767749 139.251584 
L 320.915742 137.7484 
L 245.671964 229.260637 
L 244.931161 228.659363 
L 320.17494 137.147126 
L 318.322933 135.643943 
z
" style="fill:none;opacity:0.5;stroke:#ff0000;stroke-linejoin:miter;"/>
   </g>
   <g id="patch_84">
    <path clip-path="url(#p558198d349)" d="M 325.991942 327.096447 
L 318.322933 322.276057 
L 320.17494 320.772874 
L 244.931161 229.260637 
L 245.671964 228.659363 
L 320.915742 320.1716 
L 322.767749 318.668416 
z
" style="fill:none;opacity:0.5;stroke:#ff0000;stroke-linejoin:miter;"/>
   </g>
   <g id="patch_85">
    <path clip-path="url(#p558198d349)" d="M 331.197772 135.286661 
L 327.521114 143.529807 
L 325.753334 141.929644 
L 245.655119 229.280033 
L 244.948006 228.639967 
L 325.046222 141.289579 
L 323.278442 139.689415 
z
" style="fill:none;opacity:0.5;stroke:#ff0000;stroke-linejoin:miter;"/>
   </g>
   <g id="patch_86">
    <path clip-path="url(#p558198d349)" d="M 331.197772 322.633339 
L 323.278442 318.230585 
L 325.046222 316.630421 
L 244.948006 229.280033 
L 245.655119 228.639967 
L 325.753334 315.990356 
L 327.521114 314.390193 
z
" style="fill:none;opacity:0.5;stroke:#ff0000;stroke-linejoin:miter;"/>
   </g>
   <g id="patch_87">
    <path clip-path="url(#p558198d349)" d="M 336.403603 140.274474 
L 332.262597 148.297319 
L 330.588946 146.600176 
L 245.636293 229.299429 
L 244.966832 228.620571 
L 329.919485 145.921319 
L 328.245834 144.224176 
z
" style="fill:none;opacity:0.5;stroke:#ff0000;stroke-linejoin:miter;"/>
   </g>
   <g id="patch_88">
    <path clip-path="url(#p558198d349)" d="M 336.403603 317.645526 
L 328.245834 313.695824 
L 329.919485 311.998681 
L 244.966832 229.299429 
L 245.636293 228.620571 
L 330.588946 311.319824 
L 332.262597 309.622681 
z
" style="fill:none;opacity:0.5;stroke:#ff0000;stroke-linejoin:miter;"/>
   </g>
   <g id="patch_89">
    <path clip-path="url(#p558198d349)" d="M 341.609434 145.881445 
L 336.990058 153.642195 
L 335.42222 151.848072 
L 245.61513 229.318824 
L 244.987995 228.601176 
L 334.795085 151.130423 
L 333.227247 149.336301 
z
" style="fill:none;opacity:0.5;stroke:#ff0000;stroke-linejoin:miter;"/>
   </g>
   <g id="patch_90">
    <path clip-path="url(#p558198d349)" d="M 341.609434 312.038555 
L 333.227247 308.583699 
L 334.795085 306.789577 
L 244.987995 229.318824 
L 245.61513 228.601176 
L 335.42222 306.071928 
L 336.990058 304.277805 
z
" style="fill:none;opacity:0.5;stroke:#ff0000;stroke-linejoin:miter;"/>
   </g>
   <g id="patch_91">
    <path clip-path="url(#p558198d349)" d="M 346.815265 152.24321 
L 341.700427 159.690916 
L 340.252646 157.799814 
L 245.591119 229.33822 
L 245.012006 228.58178 
L 339.673534 157.043373 
L 338.225754 155.152271 
z
" style="fill:none;opacity:0.5;stroke:#ff0000;stroke-linejoin:miter;"/>
   </g>
   <g id="patch_92">
    <path clip-path="url(#p558198d349)" d="M 346.815265 305.67679 
L 338.225754 302.767729 
L 339.673534 300.876627 
L 245.012006 229.33822 
L 245.591119 228.58178 
L 340.252646 300.120186 
L 341.700427 298.229084 
z
" style="fill:none;opacity:0.5;stroke:#ff0000;stroke-linejoin:miter;"/>
   </g>
   <g id="patch_93">
    <path clip-path="url(#p558198d349)" d="M 352.021096 159.567053 
L 346.389007 166.636775 
L 345.079441 164.648693 
L 245.563476 229.357616 
L 245.039649 228.562384 
L 344.555614 163.85346 
L 343.246048 161.865379 
z
" style="fill:none;opacity:0.5;stroke:#ff0000;stroke-linejoin:miter;"/>
   </g>
   <g id="patch_94">
    <path clip-path="url(#p558198d349)" d="M 352.021096 298.352947 
L 343.246048 296.054621 
L 344.555614 294.06654 
L 245.039649 229.357616 
L 245.563476 228.562384 
L 345.079441 293.271307 
L 346.389007 291.283225 
z
" style="fill:none;opacity:0.5;stroke:#ff0000;stroke-linejoin:miter;"/>
   </g>
   <g id="patch_95">
    <path clip-path="url(#p558198d349)" d="M 357.226927 168.19988 
L 351.047945 174.803262 
L 349.901295 172.7182 
L 245.530892 229.377012 
L 245.072233 228.542988 
L 349.442635 171.884176 
L 348.295985 169.799115 
z
" style="fill:none;opacity:0.5;stroke:#ff0000;stroke-linejoin:miter;"/>
   </g>
   <g id="patch_96">
    <path clip-path="url(#p558198d349)" d="M 357.226927 289.72012 
L 348.295985 288.120885 
L 349.442635 286.035824 
L 245.072233 229.377012 
L 245.530892 228.542988 
L 349.901295 285.2018 
L 351.047945 283.116738 
z
" style="fill:none;opacity:0.5;stroke:#ff0000;stroke-linejoin:miter;"/>
   </g>
   <g id="patch_97">
    <path clip-path="url(#p558198d349)" d="M 362.432758 178.813225 
L 355.662031 184.816581 
L 354.715674 182.634541 
L 245.490834 229.396408 
L 245.112291 228.523592 
L 354.337131 181.761724 
L 353.390773 179.579684 
z
" style="fill:none;opacity:0.5;stroke:#ff0000;stroke-linejoin:miter;"/>
   </g>
   <g id="patch_98">
    <path clip-path="url(#p558198d349)" d="M 362.432758 279.106775 
L 353.390773 278.340316 
L 354.337131 276.158276 
L 245.112291 229.396408 
L 245.490834 228.523592 
L 354.715674 275.285459 
L 355.662031 273.103419 
z
" style="fill:none;opacity:0.5;stroke:#ff0000;stroke-linejoin:miter;"/>
   </g>
   <g id="patch_99">
    <path clip-path="url(#p558198d349)" d="M 367.638589 193.125636 
L 360.192348 198.27928 
L 359.516091 196.00026 
L 245.436814 229.415804 
L 245.166311 228.504196 
L 359.245588 195.088652 
L 358.569331 192.809631 
z
" style="fill:none;opacity:0.5;stroke:#ff0000;stroke-linejoin:miter;"/>
   </g>
   <g id="patch_100">
    <path clip-path="url(#p558198d349)" d="M 367.638589 264.794364 
L 358.569331 265.110369 
L 359.245588 262.831348 
L 245.166311 229.415804 
L 245.436814 228.504196 
L 359.516091 261.91974 
L 360.192348 259.64072 
z
" style="fill:none;opacity:0.5;stroke:#ff0000;stroke-linejoin:miter;"/>
   </g>
   <g id="patch_101">
    <path clip-path="url(#p558198d349)" d="M 372.84442 228.96 
L 364.235277 231.8112 
L 364.235277 229.4352 
L 245.301562 229.4352 
L 245.301562 228.4848 
L 364.235277 228.4848 
L 364.235277 226.1088 
z
" style="fill:none;opacity:0.5;stroke:#ff0000;stroke-linejoin:miter;"/>
   </g>
   <g id="patch_102">
    <path clip-path="url(#p558198d349)" d="M 372.84442 228.96 
L 364.235277 231.8112 
L 364.235277 229.4352 
L 245.301562 229.4352 
L 245.301562 228.4848 
L 364.235277 228.4848 
L 364.235277 226.1088 
z
" style="fill:none;opacity:0.5;stroke:#ff0000;stroke-linejoin:miter;"/>
   </g>
   <g id="patch_103">
    <path clip-path="url(#p558198d349)" d="M -137.327009 355.68 
L -130.067142 350.270228 
L -129.310906 352.5243 
L 245.150315 228.509186 
L 245.45281 229.410814 
L -129.008412 353.425928 
L -128.252176 355.68 
z
" style="fill:none;stroke:#ff8c00;stroke-linejoin:miter;"/>
   </g>
   <g id="patch_104">
    <path clip-path="url(#p558198d349)" d="M -137.327009 355.68 
L -130.067142 350.270228 
L -129.310906 352.5243 
L 245.150315 228.509186 
L 245.45281 229.410814 
L -129.008412 353.425928 
L -128.252176 355.68 
z
" style="fill:none;stroke:#ff8c00;stroke-linejoin:miter;"/>
   </g>
   <g id="patch_105">
    <path clip-path="url(#p558198d349)" d="M -193.843625 350.507755 
L -186.320399 345.465688 
L -185.678633 347.754532 
L 245.173209 228.502231 
L 245.429916 229.417769 
L -185.421926 348.67007 
L -184.78016 350.958915 
z
" style="fill:none;stroke:#ff8c00;stroke-linejoin:miter;"/>
   </g>
   <g id="patch_106">
    <path clip-path="url(#p558198d349)" d="M -49.575407 350.507755 
L -42.723145 344.596426 
L -41.806738 346.791051 
L 245.118281 228.521075 
L 245.484844 229.398925 
L -41.440175 347.6689 
L -40.523769 349.863525 
z
" style="fill:none;stroke:#ff8c00;stroke-linejoin:miter;"/>
   </g>
   <g id="patch_107">
    <path clip-path="url(#p558198d349)" d="M -207.03683 345.33551 
L -199.421946 340.431149 
L -198.822468 342.731284 
L 245.181667 228.499973 
L 245.421458 229.420027 
L -198.582677 343.651338 
L -197.983198 345.951474 
z
" style="fill:none;stroke:#ff8c00;stroke-linejoin:miter;"/>
   </g>
   <g id="patch_108">
    <path clip-path="url(#p558198d349)" d="M -5.147217 345.33551 
L 1.435462 339.129137 
L 2.448574 341.281388 
L 245.09894 228.52955 
L 245.504185 229.39045 
L 2.853819 342.142288 
L 3.866931 344.294538 
z
" style="fill:none;stroke:#ff8c00;stroke-linejoin:miter;"/>
   </g>
   <g id="patch_109">
    <path clip-path="url(#p558198d349)" d="M -212.783863 340.163265 
L -205.101865 335.363337 
L -204.534257 337.67144 
L 245.188041 228.498379 
L 245.415084 229.421621 
L -204.307214 338.594681 
L -203.739606 340.902785 
z
" style="fill:none;stroke:#ff8c00;stroke-linejoin:miter;"/>
   </g>
   <g id="patch_110">
    <path clip-path="url(#p558198d349)" d="M 31.834802 340.163265 
L 38.126855 333.666137 
L 39.237346 335.770429 
L 245.079464 228.539142 
L 245.523661 229.380858 
L 39.681543 336.612146 
L 40.792034 338.716438 
z
" style="fill:none;stroke:#ff8c00;stroke-linejoin:miter;"/>
   </g>
   <g id="patch_111">
    <path clip-path="url(#p558198d349)" d="M -214.544139 334.99102 
L -206.806628 330.279933 
L -206.266001 332.594422 
L 245.193437 228.497102 
L 245.409688 229.422898 
L -206.04975 333.520217 
L -205.509123 335.834706 
z
" style="fill:none;stroke:#ff8c00;stroke-linejoin:miter;"/>
   </g>
   <g id="patch_112">
    <path clip-path="url(#p558198d349)" d="M 64.830063 334.99102 
L 70.779821 328.183003 
L 71.997064 330.228181 
L 245.058114 228.550964 
L 245.545011 229.369036 
L 72.483961 331.046252 
L 73.701204 333.09143 
z
" style="fill:none;stroke:#ff8c00;stroke-linejoin:miter;"/>
   </g>
   <g id="patch_113">
    <path clip-path="url(#p558198d349)" d="M -213.669446 329.818776 
L -205.883192 325.187641 
L -205.366745 327.507574 
L 245.198273 228.496013 
L 245.404852 229.423987 
L -205.160166 328.435548 
L -204.643719 330.75548 
z
" style="fill:none;stroke:#ff8c00;stroke-linejoin:miter;"/>
   </g>
   <g id="patch_114">
    <path clip-path="url(#p558198d349)" d="M 95.190356 329.818776 
L 100.714295 322.665317 
L 102.053944 324.633514 
L 245.033633 228.566361 
L 245.569492 229.353639 
L 102.589804 325.420793 
L 103.929453 327.388989 
z
" style="fill:none;stroke:#ff8c00;stroke-linejoin:miter;"/>
   </g>
   <g id="patch_115">
    <path clip-path="url(#p558198d349)" d="M -210.858104 324.646531 
L -203.02746 320.089879 
L -202.533453 322.414631 
L 245.202761 228.49505 
L 245.400364 229.42495 
L -202.335851 323.344532 
L -201.841844 325.669284 
z
" style="fill:none;stroke:#ff8c00;stroke-linejoin:miter;"/>
   </g>
   <g id="patch_116">
    <path clip-path="url(#p558198d349)" d="M 123.613999 324.646531 
L 128.5838 317.102516 
L 130.067901 318.965618 
L 245.004742 228.58738 
L 245.598383 229.33262 
L 130.661541 319.710859 
L 132.145641 321.573961 
z
" style="fill:none;stroke:#ff8c00;stroke-linejoin:miter;"/>
   </g>
   <g id="patch_117">
    <path clip-path="url(#p558198d349)" d="M -206.527372 319.474286 
L -198.655272 314.988699 
L -198.182601 317.317826 
L 245.207028 228.494175 
L 245.396097 229.425825 
L -197.993533 318.249477 
L -197.520863 320.578604 
z
" style="fill:none;stroke:#ff8c00;stroke-linejoin:miter;"/>
   </g>
   <g id="patch_118">
    <path clip-path="url(#p558198d349)" d="M 150.518252 319.474286 
L 154.736558 311.491293 
L 156.39374 313.204316 
L 244.970126 228.617396 
L 245.632999 229.302604 
L 157.056613 313.889524 
L 158.713795 315.602547 
z
" style="fill:none;stroke:#ff8c00;stroke-linejoin:miter;"/>
   </g>
   <g id="patch_119">
    <path clip-path="url(#p558198d349)" d="M -200.950282 314.302041 
L -193.038741 309.885485 
L -192.586727 312.218656 
L 245.21116 228.493366 
L 245.391965 229.426634 
L -192.405922 313.151924 
L -191.953908 315.485095 
z
" style="fill:none;stroke:#ff8c00;stroke-linejoin:miter;"/>
   </g>
   <g id="patch_120">
    <path clip-path="url(#p558198d349)" d="M 176.176148 314.302041 
L 179.337986 305.850723 
L 181.201049 307.340359 
L 244.92895 228.662073 
L 245.674175 229.257927 
L 181.946274 307.936214 
L 183.809336 309.42585 
z
" style="fill:none;stroke:#ff8c00;stroke-linejoin:miter;"/>
   </g>
   <g id="patch_121">
    <path clip-path="url(#p558198d349)" d="M -194.316968 309.129796 
L -186.36735 304.781257 
L -185.935624 307.118217 
L 245.215217 228.492608 
L 245.387908 229.427392 
L -185.762933 308.053002 
L -185.331207 310.389963 
z
" style="fill:none;stroke:#ff8c00;stroke-linejoin:miter;"/>
   </g>
   <g id="patch_122">
    <path clip-path="url(#p558198d349)" d="M 200.777819 309.129796 
L 202.424459 300.263181 
L 204.518287 301.41107 
L 244.882797 228.730422 
L 245.720328 229.189578 
L 205.355818 301.870225 
L 207.449646 303.018114 
z
" style="fill:none;stroke:#ff8c00;stroke-linejoin:miter;"/>
   </g>
   <g id="patch_123">
    <path clip-path="url(#p558198d349)" d="M -186.765928 303.957551 
L -178.77911 299.676828 
L -178.367548 302.017377 
L 245.21925 228.49189 
L 245.383875 229.42811 
L -178.202923 302.953597 
L -177.791362 305.294146 
z
" style="fill:none;stroke:#ff8c00;stroke-linejoin:miter;"/>
   </g>
   <g id="patch_124">
    <path clip-path="url(#p558198d349)" d="M 224.461764 303.957551 
L 223.986639 294.953631 
L 226.29183 295.585943 
L 244.840524 228.833538 
L 245.762601 229.086462 
L 227.213906 295.838868 
L 229.519096 296.471179 
z
" style="fill:none;stroke:#ff8c00;stroke-linejoin:miter;"/>
   </g>
   <g id="patch_125">
    <path clip-path="url(#p558198d349)" d="M -178.401518 298.785306 
L -170.377991 294.572892 
L -169.986677 296.916867 
L 245.2233 228.491205 
L 245.379825 229.428795 
L -169.830151 297.854457 
L -169.438836 300.198432 
z
" style="fill:none;stroke:#ff8c00;stroke-linejoin:miter;"/>
   </g>
   <g id="patch_126">
    <path clip-path="url(#p558198d349)" d="M 247.332339 298.785306 
L 244.215156 290.317629 
L 246.605587 290.249001 
L 244.823476 228.973726 
L 245.779649 228.946274 
L 247.561759 290.221549 
L 249.95219 290.152921 
z
" style="fill:none;stroke:#ff8c00;stroke-linejoin:miter;"/>
   </g>
   <g id="patch_127">
    <path clip-path="url(#p558198d349)" d="M -169.304424 293.613061 
L -161.244357 289.470082 
L -160.873558 291.817347 
L 245.227403 228.490547 
L 245.375722 229.429453 
L -160.725239 292.756253 
L -160.354441 295.103518 
z
" style="fill:none;stroke:#ff8c00;stroke-linejoin:miter;"/>
   </g>
   <g id="patch_128">
    <path clip-path="url(#p558198d349)" d="M 269.470231 293.613061 
L 263.782621 286.587354 
L 266.024421 285.7601 
L 244.853203 229.125451 
L 245.749922 228.794549 
L 266.921141 285.429199 
L 269.162941 284.601946 
z
" style="fill:none;stroke:#ff8c00;stroke-linejoin:miter;"/>
   </g>
   <g id="patch_129">
    <path clip-path="url(#p558198d349)" d="M -159.538287 288.440816 
L -151.441563 284.369004 
L -151.091727 286.719444 
L 245.231595 228.489912 
L 245.37153 229.430088 
L -150.951793 287.659619 
L -150.601957 290.010059 
z
" style="fill:none;stroke:#ff8c00;stroke-linejoin:miter;"/>
   </g>
   <g id="patch_130">
    <path clip-path="url(#p558198d349)" d="M 290.939079 288.440816 
L 283.437581 283.366893 
L 285.339424 281.926445 
L 244.921194 229.24809 
L 245.681931 228.67191 
L 286.100161 281.350265 
L 288.002004 279.909817 
z
" style="fill:none;stroke:#ff8c00;stroke-linejoin:miter;"/>
   </g>
   <g id="patch_131">
    <path clip-path="url(#p558198d349)" d="M -149.15407 283.268571 
L -141.020318 279.270273 
L -140.692065 281.623783 
L 245.235912 228.489298 
L 245.367213 229.430702 
L -140.560764 282.565188 
L -140.232511 284.918698 
z
" style="fill:none;stroke:#ff8c00;stroke-linejoin:miter;"/>
   </g>
   <g id="patch_132">
    <path clip-path="url(#p558198d349)" d="M 311.789848 283.268571 
L 303.317153 280.038996 
L 304.835848 278.20362 
L 244.997824 229.327075 
L 245.605301 228.592925 
L 305.443326 277.469469 
L 306.96202 275.634092 
z
" style="fill:none;stroke:#ff8c00;stroke-linejoin:miter;"/>
   </g>
   <g id="patch_133">
    <path clip-path="url(#p558198d349)" d="M -138.193047 278.096327 
L -130.021649 274.174532 
L -129.715784 276.531018 
L 245.240389 228.488703 
L 245.362736 229.431297 
L -129.593438 277.473613 
L -129.287572 279.830098 
z
" style="fill:none;stroke:#ff8c00;stroke-linejoin:miter;"/>
   </g>
   <g id="patch_134">
    <path clip-path="url(#p558198d349)" d="M 332.06381 278.096327 
L 323.163305 276.337545 
L 324.347564 274.27334 
L 245.064711 229.372841 
L 245.538414 228.547159 
L 324.821268 273.447658 
L 326.005527 271.383452 
z
" style="fill:none;stroke:#ff8c00;stroke-linejoin:miter;"/>
   </g>
   <g id="patch_135">
    <path clip-path="url(#p558198d349)" d="M -126.6889 272.924082 
L -118.479 269.082485 
L -118.196523 271.441851 
L 245.245067 228.488127 
L 245.358058 229.431873 
L -118.083532 272.385597 
L -117.801055 274.744964 
z
" style="fill:none;stroke:#ff8c00;stroke-linejoin:miter;"/>
   </g>
   <g id="patch_136">
    <path clip-path="url(#p558198d349)" d="M 351.794648 272.924082 
L 342.743366 272.274934 
L 343.66098 270.080808 
L 245.11804 229.398825 
L 245.485085 228.521175 
L 344.028026 269.203157 
L 344.94564 267.009031 
z
" style="fill:none;stroke:#ff8c00;stroke-linejoin:miter;"/>
   </g>
   <g id="patch_137">
    <path clip-path="url(#p558198d349)" d="M -114.669229 267.751837 
L -106.419729 263.994917 
L -106.161859 266.357063 
L 245.249988 228.487571 
L 245.353137 229.432429 
L -106.05871 267.301921 
L -105.80084 269.664067 
z
" style="fill:none;stroke:#ff8c00;stroke-linejoin:miter;"/>
   </g>
   <g id="patch_138">
    <path clip-path="url(#p558198d349)" d="M 371.009964 267.751837 
L 361.937057 267.937622 
L 362.646385 265.668547 
L 245.159697 229.413815 
L 245.443428 228.506185 
L 362.930116 264.760917 
L 363.639443 262.491842 
z
" style="fill:none;stroke:#ff8c00;stroke-linejoin:miter;"/>
   </g>
   <g id="patch_139">
    <path clip-path="url(#p558198d349)" d="M -102.156661 262.579592 
L -93.866213 258.91273 
L -93.634415 261.277543 
L 245.255203 228.487038 
L 245.347922 229.432962 
L -93.541696 262.223468 
L -93.309899 264.58828 
z
" style="fill:none;stroke:#ff8c00;stroke-linejoin:miter;"/>
   </g>
   <g id="patch_140">
    <path clip-path="url(#p558198d349)" d="M 389.732381 262.579592 
L 380.695606 263.40448 
L 381.24111 261.091121 
L 245.192462 229.422672 
L 245.410663 228.497328 
L 381.459311 260.165777 
L 382.004815 257.852418 
z
" style="fill:none;stroke:#ff8c00;stroke-linejoin:miter;"/>
   </g>
   <g id="patch_141">
    <path clip-path="url(#p558198d349)" d="M -89.169666 257.407347 
L -80.836659 253.836983 
L -80.632689 256.204325 
L 245.260769 228.486532 
L 245.342356 229.433468 
L -80.551101 257.151261 
L -80.347131 259.518603 
z
" style="fill:none;stroke:#ff8c00;stroke-linejoin:miter;"/>
   </g>
   <g id="patch_142">
    <path clip-path="url(#p558198d349)" d="M 407.980371 257.407347 
L 399.004118 258.73271 
L 399.418647 256.392678 
L 245.218657 229.428006 
L 245.384468 228.491994 
L 399.584458 255.456665 
L 399.998987 253.116632 
z
" style="fill:none;stroke:#ff8c00;stroke-linejoin:miter;"/>
   </g>
   <g id="patch_143">
    <path clip-path="url(#p558198d349)" d="M -75.723175 252.235102 
L -67.345721 248.768934 
L -67.171673 251.138633 
L 245.266753 228.48606 
L 245.336372 229.43394 
L -67.102054 252.086513 
L -66.928007 254.456212 
z
" style="fill:none;stroke:#ff8c00;stroke-linejoin:miter;"/>
   </g>
   <g id="patch_144">
    <path clip-path="url(#p558198d349)" d="M 425.768866 252.235102 
L 416.861938 253.961485 
L 417.169784 251.605254 
L 245.239993 229.431246 
L 245.363132 228.488754 
L 417.292922 250.662762 
L 417.600767 248.30653 
z
" style="fill:none;stroke:#ff8c00;stroke-linejoin:miter;"/>
   </g>
   <g id="patch_145">
    <path clip-path="url(#p558198d349)" d="M -61.829043 247.062857 
L -53.404956 243.710113 
L -53.263335 246.081943 
L 245.273238 228.485634 
L 245.329887 229.434366 
L -53.206686 247.030675 
L -53.065064 249.402505 
z
" style="fill:none;stroke:#ff8c00;stroke-linejoin:miter;"/>
   </g>
   <g id="patch_146">
    <path clip-path="url(#p558198d349)" d="M 443.109719 247.062857 
L 434.273649 249.117474 
L 434.492998 246.75149 
L 245.257693 229.433197 
L 245.345432 228.486803 
L 434.580738 245.805097 
L 434.800087 243.439113 
z
" style="fill:none;stroke:#ff8c00;stroke-linejoin:miter;"/>
   </g>
   <g id="patch_147">
    <path clip-path="url(#p558198d349)" d="M -47.49639 241.890612 
L -39.02317 238.662401 
L -38.916978 241.036057 
L 245.280324 228.485269 
L 245.322801 229.434731 
L -38.874501 241.98552 
L -38.768309 244.359176 
z
" style="fill:none;stroke:#ff8c00;stroke-linejoin:miter;"/>
   </g>
   <g id="patch_148">
    <path clip-path="url(#p558198d349)" d="M 460.012052 241.890612 
L 451.245053 244.219066 
L 451.389743 241.847419 
L 245.272625 229.434329 
L 245.3305 228.485671 
L 451.447619 240.89876 
L 451.592309 238.527113 
z
" style="fill:none;stroke:#ff8c00;stroke-linejoin:miter;"/>
   </g>
   <g id="patch_149">
    <path clip-path="url(#p558198d349)" d="M -32.731855 236.718367 
L -24.206672 233.628153 
L -24.139534 236.003216 
L 245.288135 228.484987 
L 245.31499 229.435013 
L -24.112678 236.953241 
L -24.04554 239.328305 
z
" style="fill:none;stroke:#ff8c00;stroke-linejoin:miter;"/>
   </g>
   <g id="patch_150">
    <path clip-path="url(#p558198d349)" d="M 476.482502 236.718367 
L 467.78139 239.279186 
L 467.86212 236.904541 
L 245.285416 229.434929 
L 245.317709 228.485071 
L 467.894413 235.954682 
L 467.975143 233.580037 
z
" style="fill:none;stroke:#ff8c00;stroke-linejoin:miter;"/>
   </g>
   <g id="patch_151">
    <path clip-path="url(#p558198d349)" d="M -17.539772 231.546122 
L -8.959469 228.61036 
L -8.935787 230.986244 
L 245.296826 228.484823 
L 245.306299 229.435177 
L -8.926315 231.936597 
L -8.902634 234.312481 
z
" style="fill:none;stroke:#ff8c00;stroke-linejoin:miter;"/>
   </g>
   <g id="patch_152">
    <path clip-path="url(#p558198d349)" d="M 492.525404 231.546122 
L 483.886526 234.307112 
L 483.911703 231.931244 
L 245.296527 229.435174 
L 245.306598 228.484826 
L 483.921774 230.980897 
L 483.946951 228.605028 
z
" style="fill:none;stroke:#ff8c00;stroke-linejoin:miter;"/>
   </g>
   <g id="patch_153">
    <path clip-path="url(#p558198d349)" d="M -1.922279 226.373878 
L 6.716599 223.612888 
L 6.691422 225.988756 
L 245.306598 228.484826 
L 245.296527 229.435174 
L 6.681351 226.939103 
L 6.656174 229.314972 
z
" style="fill:none;stroke:#ff8c00;stroke-linejoin:miter;"/>
   </g>
   <g id="patch_154">
    <path clip-path="url(#p558198d349)" d="M 508.142897 226.373878 
L 499.562594 229.30964 
L 499.538912 226.933756 
L 245.306299 229.435177 
L 245.296826 228.484823 
L 499.52944 225.983403 
L 499.505759 223.607519 
z
" style="fill:none;stroke:#ff8c00;stroke-linejoin:miter;"/>
   </g>
   <g id="patch_155">
    <path clip-path="url(#p558198d349)" d="M 14.120623 221.201633 
L 22.821735 218.640814 
L 22.741005 221.015459 
L 245.317709 228.485071 
L 245.285416 229.434929 
L 22.708712 221.965318 
L 22.627982 224.339963 
z
" style="fill:none;stroke:#ff8c00;stroke-linejoin:miter;"/>
   </g>
   <g id="patch_156">
    <path clip-path="url(#p558198d349)" d="M 523.33498 221.201633 
L 514.809797 224.291847 
L 514.742659 221.916784 
L 245.31499 229.435013 
L 245.288135 228.484987 
L 514.715803 220.966759 
L 514.648665 218.591695 
z
" style="fill:none;stroke:#ff8c00;stroke-linejoin:miter;"/>
   </g>
   <g id="patch_157">
    <path clip-path="url(#p558198d349)" d="M 30.591073 216.029388 
L 39.358072 213.700934 
L 39.213382 216.072581 
L 245.3305 228.485671 
L 245.272625 229.434329 
L 39.155506 217.02124 
L 39.010816 219.392887 
z
" style="fill:none;stroke:#ff8c00;stroke-linejoin:miter;"/>
   </g>
   <g id="patch_158">
    <path clip-path="url(#p558198d349)" d="M 538.099515 216.029388 
L 529.626295 219.257599 
L 529.520103 216.883943 
L 245.322801 229.434731 
L 245.280324 228.485269 
L 529.477626 215.93448 
L 529.371434 213.560824 
z
" style="fill:none;stroke:#ff8c00;stroke-linejoin:miter;"/>
   </g>
   <g id="patch_159">
    <path clip-path="url(#p558198d349)" d="M 47.493406 210.857143 
L 56.329476 208.802526 
L 56.110127 211.16851 
L 245.345432 228.486803 
L 245.257693 229.433197 
L 56.022387 212.114903 
L 55.803038 214.480887 
z
" style="fill:none;stroke:#ff8c00;stroke-linejoin:miter;"/>
   </g>
   <g id="patch_160">
    <path clip-path="url(#p558198d349)" d="M 552.432168 210.857143 
L 544.008081 214.209887 
L 543.86646 211.838057 
L 245.329887 229.434366 
L 245.273238 228.485634 
L 543.809811 210.889325 
L 543.668189 208.517495 
z
" style="fill:none;stroke:#ff8c00;stroke-linejoin:miter;"/>
   </g>
   <g id="patch_161">
    <path clip-path="url(#p558198d349)" d="M 64.834259 205.684898 
L 73.741187 203.958515 
L 73.433341 206.314746 
L 245.363132 228.488754 
L 245.239993 229.431246 
L 73.310203 207.257238 
L 73.002358 209.61347 
z
" style="fill:none;stroke:#ff8c00;stroke-linejoin:miter;"/>
   </g>
   <g id="patch_162">
    <path clip-path="url(#p558198d349)" d="M 566.3263 205.684898 
L 557.948846 209.151066 
L 557.774798 206.781367 
L 245.336372 229.43394 
L 245.266753 228.48606 
L 557.705179 205.833487 
L 557.531132 203.463788 
z
" style="fill:none;stroke:#ff8c00;stroke-linejoin:miter;"/>
   </g>
   <g id="patch_163">
    <path clip-path="url(#p558198d349)" d="M 82.622754 200.512653 
L 91.599007 199.18729 
L 91.184478 201.527322 
L 245.384468 228.491994 
L 245.218657 229.428006 
L 91.018667 202.463335 
L 90.604138 204.803368 
z
" style="fill:none;stroke:#ff8c00;stroke-linejoin:miter;"/>
   </g>
   <g id="patch_164">
    <path clip-path="url(#p558198d349)" d="M 579.772791 200.512653 
L 571.439784 204.083017 
L 571.235814 201.715675 
L 245.342356 229.433468 
L 245.260769 228.486532 
L 571.154226 200.768739 
L 570.950256 198.401397 
z
" style="fill:none;stroke:#ff8c00;stroke-linejoin:miter;"/>
   </g>
   <g id="patch_165">
    <path clip-path="url(#p558198d349)" d="M 100.870744 195.340408 
L 109.907519 194.51552 
L 109.362015 196.828879 
L 245.410663 228.497328 
L 245.192462 229.422672 
L 109.143814 197.754223 
L 108.59831 200.067582 
z
" style="fill:none;stroke:#ff8c00;stroke-linejoin:miter;"/>
   </g>
   <g id="patch_166">
    <path clip-path="url(#p558198d349)" d="M 592.759786 195.340408 
L 584.469338 199.00727 
L 584.23754 196.642457 
L 245.347922 229.432962 
L 245.255203 228.487038 
L 584.144821 195.696532 
L 583.913024 193.33172 
z
" style="fill:none;stroke:#ff8c00;stroke-linejoin:miter;"/>
   </g>
   <g id="patch_167">
    <path clip-path="url(#p558198d349)" d="M 119.593161 190.168163 
L 128.666068 189.982378 
L 127.95674 192.251453 
L 245.443428 228.506185 
L 245.159697 229.413815 
L 127.673009 193.159083 
L 126.963682 195.428158 
z
" style="fill:none;stroke:#ff8c00;stroke-linejoin:miter;"/>
   </g>
   <g id="patch_168">
    <path clip-path="url(#p558198d349)" d="M 605.272354 190.168163 
L 597.022854 193.925083 
L 596.764984 191.562937 
L 245.353137 229.432429 
L 245.249988 228.487571 
L 596.661835 190.618079 
L 596.403965 188.255933 
z
" style="fill:none;stroke:#ff8c00;stroke-linejoin:miter;"/>
   </g>
   <g id="patch_169">
    <path clip-path="url(#p558198d349)" d="M 138.808477 184.995918 
L 147.859759 185.645066 
L 146.942145 187.839192 
L 245.485085 228.521175 
L 245.11804 229.398825 
L 146.575099 188.716843 
L 145.657485 190.910969 
z
" style="fill:none;stroke:#ff8c00;stroke-linejoin:miter;"/>
   </g>
   <g id="patch_170">
    <path clip-path="url(#p558198d349)" d="M 617.292025 184.995918 
L 609.082125 188.837515 
L 608.799648 186.478149 
L 245.358058 229.431873 
L 245.245067 228.488127 
L 608.686657 185.534403 
L 608.40418 183.175036 
z
" style="fill:none;stroke:#ff8c00;stroke-linejoin:miter;"/>
   </g>
   <g id="patch_171">
    <path clip-path="url(#p558198d349)" d="M 158.539315 179.823673 
L 167.43982 181.582455 
L 166.255561 183.64666 
L 245.538414 228.547159 
L 245.064711 229.372841 
L 165.781857 184.472342 
L 164.597598 186.536548 
z
" style="fill:none;stroke:#ff8c00;stroke-linejoin:miter;"/>
   </g>
   <g id="patch_172">
    <path clip-path="url(#p558198d349)" d="M 628.796172 179.823673 
L 620.624774 183.745468 
L 620.318909 181.388982 
L 245.362736 229.431297 
L 245.240389 228.488703 
L 620.196563 180.446387 
L 619.890697 178.089902 
z
" style="fill:none;stroke:#ff8c00;stroke-linejoin:miter;"/>
   </g>
   <g id="patch_173">
    <path clip-path="url(#p558198d349)" d="M 178.813277 174.651429 
L 187.285972 177.881004 
L 185.767277 179.71638 
L 245.605301 228.592925 
L 244.997824 229.327075 
L 185.159799 180.450531 
L 183.641105 182.285908 
z
" style="fill:none;stroke:#ff8c00;stroke-linejoin:miter;"/>
   </g>
   <g id="patch_174">
    <path clip-path="url(#p558198d349)" d="M 639.757195 174.651429 
L 631.623443 178.649727 
L 631.29519 176.296217 
L 245.367213 229.430702 
L 245.235912 228.489298 
L 631.163889 175.354812 
L 630.835636 173.001302 
z
" style="fill:none;stroke:#ff8c00;stroke-linejoin:miter;"/>
   </g>
   <g id="patch_175">
    <path clip-path="url(#p558198d349)" d="M 199.664046 169.479184 
L 207.165544 174.553107 
L 205.263701 175.993555 
L 245.681931 228.67191 
L 244.921194 229.24809 
L 204.502964 176.569735 
L 202.601121 178.010183 
z
" style="fill:none;stroke:#ff8c00;stroke-linejoin:miter;"/>
   </g>
   <g id="patch_176">
    <path clip-path="url(#p558198d349)" d="M 650.141412 169.479184 
L 642.044688 173.550996 
L 641.694852 171.200556 
L 245.37153 229.430088 
L 245.231595 228.489912 
L 641.554918 170.260381 
L 641.205082 167.909941 
z
" style="fill:none;stroke:#ff8c00;stroke-linejoin:miter;"/>
   </g>
   <g id="patch_177">
    <path clip-path="url(#p558198d349)" d="M 221.132894 164.306939 
L 226.820504 171.332646 
L 224.578704 172.1599 
L 245.749922 228.794549 
L 244.853203 229.125451 
L 223.681984 172.490801 
L 221.440184 173.318054 
z
" style="fill:none;stroke:#ff8c00;stroke-linejoin:miter;"/>
   </g>
   <g id="patch_178">
    <path clip-path="url(#p558198d349)" d="M 659.907549 164.306939 
L 651.847482 168.449918 
L 651.476683 166.102653 
L 245.375722 229.429453 
L 245.227403 228.490547 
L 651.328364 165.163747 
L 650.957566 162.816482 
z
" style="fill:none;stroke:#ff8c00;stroke-linejoin:miter;"/>
   </g>
   <g id="patch_179">
    <path clip-path="url(#p558198d349)" d="M 243.270786 159.134694 
L 246.387969 167.602371 
L 243.997538 167.670999 
L 245.779649 228.946274 
L 244.823476 228.973726 
L 243.041366 167.698451 
L 240.650935 167.767079 
z
" style="fill:none;stroke:#ff8c00;stroke-linejoin:miter;"/>
   </g>
   <g id="patch_180">
    <path clip-path="url(#p558198d349)" d="M 669.004643 159.134694 
L 660.981116 163.347108 
L 660.589802 161.003133 
L 245.379825 229.428795 
L 245.2233 228.491205 
L 660.433276 160.065543 
L 660.041961 157.721568 
z
" style="fill:none;stroke:#ff8c00;stroke-linejoin:miter;"/>
   </g>
   <g id="patch_181">
    <path clip-path="url(#p558198d349)" d="M 266.141361 153.962449 
L 266.616486 162.966369 
L 264.311295 162.334057 
L 245.762601 229.086462 
L 244.840524 228.833538 
L 263.389219 162.081132 
L 261.084029 161.448821 
z
" style="fill:none;stroke:#ff8c00;stroke-linejoin:miter;"/>
   </g>
   <g id="patch_182">
    <path clip-path="url(#p558198d349)" d="M 677.369053 153.962449 
L 669.382235 158.243172 
L 668.970673 155.902623 
L 245.383875 229.42811 
L 245.21925 228.49189 
L 668.806048 154.966403 
L 668.394487 152.625854 
z
" style="fill:none;stroke:#ff8c00;stroke-linejoin:miter;"/>
   </g>
   <g id="patch_183">
    <path clip-path="url(#p558198d349)" d="M 289.825306 148.790204 
L 288.178666 157.656819 
L 286.084838 156.50893 
L 245.720328 229.189578 
L 244.882797 228.730422 
L 285.247307 156.049775 
L 283.153479 154.901886 
z
" style="fill:none;stroke:#ff8c00;stroke-linejoin:miter;"/>
   </g>
   <g id="patch_184">
    <path clip-path="url(#p558198d349)" d="M 684.920093 148.790204 
L 676.970475 153.138743 
L 676.538749 150.801783 
L 245.387908 229.427392 
L 245.215217 228.492608 
L 676.366058 149.866998 
L 675.934332 147.530037 
z
" style="fill:none;stroke:#ff8c00;stroke-linejoin:miter;"/>
   </g>
   <g id="patch_185">
    <path clip-path="url(#p558198d349)" d="M 314.426977 143.617959 
L 311.265139 152.069277 
L 309.402076 150.579641 
L 245.674175 229.257927 
L 244.92895 228.662073 
L 308.656851 149.983786 
L 306.793789 148.49415 
z
" style="fill:none;stroke:#ff8c00;stroke-linejoin:miter;"/>
   </g>
   <g id="patch_186">
    <path clip-path="url(#p558198d349)" d="M 691.553407 143.617959 
L 683.641866 148.034515 
L 683.189852 145.701344 
L 245.391965 229.426634 
L 245.21116 228.493366 
L 683.009047 144.768076 
L 682.557033 142.434905 
z
" style="fill:none;stroke:#ff8c00;stroke-linejoin:miter;"/>
   </g>
   <g id="patch_187">
    <path clip-path="url(#p558198d349)" d="M 340.084873 138.445714 
L 335.866567 146.428707 
L 334.209385 144.715684 
L 245.632999 229.302604 
L 244.970126 228.617396 
L 333.546512 144.030476 
L 331.88933 142.317453 
z
" style="fill:none;stroke:#ff8c00;stroke-linejoin:miter;"/>
   </g>
   <g id="patch_188">
    <path clip-path="url(#p558198d349)" d="M 697.130497 138.445714 
L 689.258397 142.931301 
L 688.785726 140.602174 
L 245.396097 229.425825 
L 245.207028 228.494175 
L 688.596658 139.670523 
L 688.123988 137.341396 
z
" style="fill:none;stroke:#ff8c00;stroke-linejoin:miter;"/>
   </g>
   <g id="patch_189">
    <path clip-path="url(#p558198d349)" d="M 366.989126 133.273469 
L 362.019325 140.817484 
L 360.535224 138.954382 
L 245.598383 229.33262 
L 245.004742 228.58738 
L 359.941584 138.209141 
L 358.457484 136.346039 
z
" style="fill:none;stroke:#ff8c00;stroke-linejoin:miter;"/>
   </g>
   <g id="patch_190">
    <path clip-path="url(#p558198d349)" d="M 701.461229 133.273469 
L 693.630585 137.830121 
L 693.136578 135.505369 
L 245.400364 229.42495 
L 245.202761 228.49505 
L 692.938976 134.575468 
L 692.444969 132.250716 
z
" style="fill:none;stroke:#ff8c00;stroke-linejoin:miter;"/>
   </g>
   <g id="patch_191">
    <path clip-path="url(#p558198d349)" d="M 395.412769 128.101224 
L 389.88883 135.254683 
L 388.549181 133.286486 
L 245.569492 229.353639 
L 245.033633 228.566361 
L 388.013321 132.499207 
L 386.673672 130.531011 
z
" style="fill:none;stroke:#ff8c00;stroke-linejoin:miter;"/>
   </g>
   <g id="patch_192">
    <path clip-path="url(#p558198d349)" d="M 704.272571 128.101224 
L 696.486317 132.732359 
L 695.96987 130.412426 
L 245.404852 229.423987 
L 245.198273 228.496013 
L 695.763291 129.484452 
L 695.246844 127.16452 
z
" style="fill:none;stroke:#ff8c00;stroke-linejoin:miter;"/>
   </g>
   <g id="patch_193">
    <path clip-path="url(#p558198d349)" d="M 425.773062 122.92898 
L 419.823304 129.736997 
L 418.606061 127.691819 
L 245.545011 229.369036 
L 245.058114 228.550964 
L 418.119164 126.873748 
L 416.901921 124.82857 
z
" style="fill:none;stroke:#ff8c00;stroke-linejoin:miter;"/>
   </g>
   <g id="patch_194">
    <path clip-path="url(#p558198d349)" d="M 705.147264 122.92898 
L 697.409753 127.640067 
L 696.869126 125.325578 
L 245.409688 229.422898 
L 245.193437 228.497102 
L 696.652875 124.399783 
L 696.112248 122.085294 
z
" style="fill:none;stroke:#ff8c00;stroke-linejoin:miter;"/>
   </g>
   <g id="patch_195">
    <path clip-path="url(#p558198d349)" d="M 458.768323 117.756735 
L 452.47627 124.253863 
L 451.365779 122.149571 
L 245.523661 229.380858 
L 245.079464 228.539142 
L 450.921582 121.307854 
L 449.811091 119.203562 
z
" style="fill:none;stroke:#ff8c00;stroke-linejoin:miter;"/>
   </g>
   <g id="patch_196">
    <path clip-path="url(#p558198d349)" d="M 703.386988 117.756735 
L 695.70499 122.556663 
L 695.137382 120.24856 
L 245.415084 229.421621 
L 245.188041 228.498379 
L 694.910339 119.325319 
L 694.342731 117.017215 
z
" style="fill:none;stroke:#ff8c00;stroke-linejoin:miter;"/>
   </g>
   <g id="patch_197">
    <path clip-path="url(#p558198d349)" d="M 495.750342 112.58449 
L 489.167663 118.790863 
L 488.154551 116.638612 
L 245.504185 229.39045 
L 245.09894 228.52955 
L 487.749306 115.777712 
L 486.736194 113.625462 
z
" style="fill:none;stroke:#ff8c00;stroke-linejoin:miter;"/>
   </g>
   <g id="patch_198">
    <path clip-path="url(#p558198d349)" d="M 697.639955 112.58449 
L 690.025071 117.488851 
L 689.425593 115.188716 
L 245.421458 229.420027 
L 245.181667 228.499973 
L 689.185802 114.268662 
L 688.586323 111.968526 
z
" style="fill:none;stroke:#ff8c00;stroke-linejoin:miter;"/>
   </g>
   <g id="patch_199">
    <path clip-path="url(#p558198d349)" d="M 540.178532 107.412245 
L 533.32627 113.323574 
L 532.409863 111.128949 
L 245.484844 229.398925 
L 245.118281 228.521075 
L 532.0433 110.2511 
L 531.126894 108.056475 
z
" style="fill:none;stroke:#ff8c00;stroke-linejoin:miter;"/>
   </g>
   <g id="patch_200">
    <path clip-path="url(#p558198d349)" d="M 684.44675 107.412245 
L 676.923524 112.454312 
L 676.281758 110.165468 
L 245.429916 229.417769 
L 245.173209 228.502231 
L 676.025051 109.24993 
L 675.383285 106.961085 
z
" style="fill:none;stroke:#ff8c00;stroke-linejoin:miter;"/>
   </g>
   <g id="patch_201">
    <path clip-path="url(#p558198d349)" d="M 627.930134 102.24 
L 620.670267 107.649772 
L 619.914031 105.3957 
L 245.45281 229.410814 
L 245.150315 228.509186 
L 619.611537 104.494072 
L 618.855301 102.24 
z
" style="fill:none;stroke:#ff8c00;stroke-linejoin:miter;"/>
   </g>
   <g id="patch_202">
    <path clip-path="url(#p558198d349)" d="M 627.930134 102.24 
L 620.670267 107.649772 
L 619.914031 105.3957 
L 245.45281 229.410814 
L 245.150315 228.509186 
L 619.611537 104.494072 
L 618.855301 102.24 
z
" style="fill:none;stroke:#ff8c00;stroke-linejoin:miter;"/>
   </g>
   <g id="patch_203">
    <path d="M 22.101562 450.72 
L 22.101562 7.2 
" style="fill:none;stroke:#cccccc;stroke-linecap:square;stroke-linejoin:miter;"/>
   </g>
   <g id="patch_204">
    <path d="M 468.501562 450.72 
L 468.501562 7.2 
" style="fill:none;stroke:#cccccc;stroke-linecap:square;stroke-linejoin:miter;"/>
   </g>
   <g id="patch_205">
    <path d="M 22.101562 450.72 
L 468.501562 450.72 
" style="fill:none;stroke:#cccccc;stroke-linecap:square;stroke-linejoin:miter;"/>
   </g>
   <g id="patch_206">
    <path d="M 22.101562 7.2 
L 468.501562 7.2 
" style="fill:none;stroke:#cccccc;stroke-linecap:square;stroke-linejoin:miter;"/>
   </g>
  </g>
 </g>
 <defs>
  <clipPath id="p558198d349">
   <rect height="443.52" width="446.4" x="22.101562" y="7.2"/>
  </clipPath>
 </defs>
</svg>
